<?xml version="1.0" encoding="UTF-8" standalone="no"?>
<!-- Created with Inkscape (http://www.inkscape.org/) -->

<svg
   xmlns:dc="http://purl.org/dc/elements/1.1/"
   xmlns:cc="http://creativecommons.org/ns#"
   xmlns:rdf="http://www.w3.org/1999/02/22-rdf-syntax-ns#"
   xmlns:svg="http://www.w3.org/2000/svg"
   xmlns="http://www.w3.org/2000/svg"
   xmlns:sodipodi="http://sodipodi.sourceforge.net/DTD/sodipodi-0.dtd"
   xmlns:inkscape="http://www.inkscape.org/namespaces/inkscape"
   version="1.1"
   id="svg2"
   width="1200"
   height="630"
   viewBox="0 0 1200 630.00003"
   sodipodi:docname="logo.svg"
   inkscape:version="0.92.3 (2405546, 2018-03-11)">
  <metadata
     id="metadata8">
    <rdf:RDF>
      <cc:Work
         rdf:about="">
        <dc:format>image/svg+xml</dc:format>
        <dc:type
           rdf:resource="http://purl.org/dc/dcmitype/StillImage" />
        <dc:title></dc:title>
      </cc:Work>
    </rdf:RDF>
  </metadata>
  <defs
     id="defs6" />
  <sodipodi:namedview
     pagecolor="#ffffff"
     bordercolor="#666666"
     borderopacity="1"
     objecttolerance="10"
     gridtolerance="10"
     guidetolerance="10"
     inkscape:pageopacity="0"
     inkscape:pageshadow="2"
     inkscape:window-width="1704"
     inkscape:window-height="948"
     id="namedview4"
     showgrid="false"
     inkscape:zoom="0.58760577"
     inkscape:cx="427.90216"
     inkscape:cy="474.80564"
     inkscape:window-x="0"
     inkscape:window-y="27"
     inkscape:window-maximized="0"
     inkscape:current-layer="svg2" />
  <path
     style="fill:#000000;stroke-width:1.33333325"
     d="m 246.24039,433.23153 c -14.3227,-4.01624 -26.7835,-14.45119 -32.22778,-26.98827 -2.67238,-6.15396 -4.89286,-22.62171 -4.0453,-30.00111 l 0.4259,-3.70818 15.5741,0.37485 15.5741,0.37484 0.73461,9.42241 c 0.94013,12.05858 4.06773,17.62671 12.16672,21.66071 8.21976,4.09416 14.33552,3.01336 21.07298,-3.72411 6.71532,-6.71532 8.73732,-17.898 4.8944,-27.0685 -3.02373,-7.21561 -8.46148,-12.51991 -27.35725,-26.6858 -28.70421,-21.51915 -37.50937,-31.89523 -42.13425,-49.65132 -6.79373,-26.08292 3.97508,-50.98062 26.62279,-61.55238 7.30578,-3.41028 9.33057,-3.73424 23.33333,-3.73322 13.84178,0.001 16.07496,0.3486 22.95742,3.5734 17.17006,8.0451 26.82627,22.03432 29.42595,42.63019 2.04615,16.2106 1.923,16.36036 -13.85792,16.85285 -18.51237,0.57775 -18.52545,0.57107 -18.52545,-9.46711 0,-14.32905 -7.08839,-24.40786 -18.11544,-25.75791 -13.90404,-1.7023 -23.85848,12.55525 -20.34483,29.13946 1.84427,8.70481 9.46595,16.78841 31.86363,33.79475 28.78974,21.85977 37.21828,32.44334 40.20858,50.48926 4.05843,24.49183 -9.44534,50.09141 -30.67644,58.15441 -10.0116,3.80215 -27.56508,4.6762 -37.56985,1.87078 z m 90.63435,-99.94787 v -99.33333 h 16 16 v 41.85735 c 0,34.34784 0.32993,41.98396 1.839,42.56304 2.411,0.92518 32.81134,1.013 35.82766,0.10346 2.15781,-0.65064 2.33333,-3.8562 2.33333,-42.61372 v -41.91013 h 15.85735 c 13.22984,0 15.99145,0.34947 16.66667,2.10906 1.05752,2.75584 1.05752,191.69271 0,194.44855 -0.67522,1.75959 -3.43683,2.10905 -16.66667,2.10905 h -15.85735 v -42.7023 -42.70232 l -19.66666,0.36899 -19.66667,0.36897 -0.35206,42.33333 -0.35206,42.33333 H 352.856 336.87474 Z m 135.99999,0 v -99.33333 h 15.85735 c 13.22984,0 15.99145,0.34947 16.66667,2.10906 1.05752,2.75584 1.05752,191.69271 0,194.44855 -0.67522,1.75959 -3.43683,2.10905 -16.66667,2.10905 h -15.85735 z m 64,0 v -99.33333 l 31,0.0159 c 33.72959,0.0172 39.55672,0.85513 51.62488,7.42345 12.61592,6.86644 20.21067,18.932 22.61981,35.93543 1.57687,11.1294 -0.0517,24.87725 -4.00616,33.81689 -1.49421,3.37795 -5.73798,8.97825 -9.43061,12.44511 l -6.71385,6.30336 6.65532,6.48249 c 12.12652,11.8116 17.05138,26.13748 15.95,46.39673 -0.86194,15.85465 -4.53704,25.20321 -13.4852,34.30296 -7.15382,7.27499 -15.37699,11.90296 -25.15898,14.15936 -3.14704,0.72592 -19.97188,1.33453 -37.38854,1.35245 l -31.66667,0.0326 z m 62.33903,68.21393 c 2.38645,-1.25856 5.96841,-4.75049 7.9599,-7.75984 3.18448,-4.81206 3.67788,-7.01728 4.09359,-18.29614 0.43989,-11.93488 0.21143,-13.33337 -3.29325,-20.15795 -5.22579,-10.17606 -11.55179,-13.33333 -26.71512,-13.33333 -6.4598,0 -11.06236,0.55393 -11.07859,1.33333 -0.0153,0.73334 -0.0277,14.23334 -0.0277,30 0,15.76667 0.012,29.33824 0.0277,30.15904 0.0449,2.41283 23.78597,0.82228 29.03347,-1.94511 z m -4.01167,-85.59811 c 6.61181,-2.76259 9.58527,-5.60539 12.49833,-11.94915 3.28574,-7.15531 3.27964,-20.86707 -0.012,-28 -4.94362,-10.71137 -11.22898,-14 -26.75742,-14 -11.07267,0 -11.99607,0.54404 -11.31535,6.66667 0.20383,1.83333 0.4206,13.68333 0.48172,26.33333 l 0.11069,23 h 10.04283 c 6.02132,0 12.00831,-0.82123 14.9512,-2.05085 z m 73.67264,17.38418 v -99.33333 h 16 16 v 99.33333 99.33333 h -16 -16 z m 64.32484,-0.33333 0.34182,-99.66666 28,-0.3864 c 41.40765,-0.57143 51.20472,1.91072 64.36157,16.30641 15.587,17.05467 19.27247,48.01446 8.42171,70.74665 -3.98944,8.35784 -8.34329,13.62255 -16.11347,19.48455 l -4.61881,3.48454 14.3078,43.78216 c 7.86928,24.08019 13.80791,44.28204 13.19692,44.89303 -0.61097,0.61097 -8.24751,0.94096 -16.97008,0.73329 l -15.85921,-0.37757 -12.61954,-42.33334 -12.61954,-42.33333 h -9.077 -9.07701 v 42.66667 42.66666 h -16.0085 -16.00848 z m 61.00578,-14.33193 c 16.76459,-8.66931 17.6856,-42.68875 1.45189,-53.62864 -3.93652,-2.65281 -6.1811,-3.03943 -17.64635,-3.03943 h -13.13616 v 29.33333 29.33334 h 12.73288 c 8.70633,0 13.95506,-0.63203 16.59774,-1.9986 z m 67.28895,112.34839 c -0.3535,-0.92572 -0.48751,-45.48313 -0.2978,-99.01646 l 0.34489,-97.33333 h 49.33333 49.33334 v 13.33333 13.33334 l -33,0.35662 -33,0.35663 v 27.83405 c 0,22.75587 0.34389,27.96601 1.88488,28.55736 1.03668,0.39781 9.73668,0.74264 19.33333,0.76631 9.59661,0.0236 18.06939,0.0624 18.82839,0.086 0.8841,0.0276 1.2435,4.95424 1,13.70968 l -0.38,13.66668 -20.33327,0.36806 -20.33333,0.36806 v 28.60865 28.60864 l 33,0.35662 33,0.35663 v 13.33333 13.33334 l -49.03554,0.3498 c -38.51384,0.27473 -49.17342,-0.012 -49.67822,-1.33334 z M 375.5414,118.617 V 61.95034 l 19,0.008 c 10.45,0.004 21.17057,0.61036 23.82351,1.34726 7.66777,2.1299 13.2565,6.75138 17.67382,14.61494 3.56507,6.34644 4.10399,8.61676 4.11452,17.33333 0.0151,12.50213 -1.99805,18.38937 -8.62237,25.21529 l -5.19129,5.34927 7.26757,23.2592 c 3.99716,12.792 7.26757,23.9218 7.26757,24.73233 0,0.96008 -3.93694,1.47371 -11.29609,1.47371 h -11.29608 l -1.97919,-7 c -11.81978,-41.80417 -10.77252,-38.9692 -14.56288,-39.42189 l -3.53242,-0.4219 v 23.4219 23.42189 H 386.87473 375.5414 Z m 36.99841,-9.38214 c 4.11799,-2.88436 6.14486,-11.2296 4.34807,-17.90238 -1.77549,-6.59368 -5.63224,-9.38214 -12.97649,-9.38214 h -5.70332 V 96.617 111.28367 h 5.70332 c 3.13684,0 7.01962,-0.92197 8.62842,-2.04881 z m 43.464,63.04881 c 0.41332,-1.65 2.5604,-11.4 4.7713,-21.66667 14.78657,-68.66432 18.85868,-86.62572 19.86809,-87.63513 0.62784,-0.62784 6.4314,-0.96677 12.8968,-0.7532 l 11.75527,0.38833 11.75269,54 c 6.46397,29.7 11.76936,55.05 11.78973,56.33333 0.0324,2.03974 -1.37036,2.33334 -11.1479,2.33334 h -11.18495 l -0.86065,-5 c -2.34164,-13.60383 -0.94663,-12.33333 -13.54207,-12.33333 -8.92172,0 -11.22739,0.39724 -11.22739,1.93437 0,1.06391 -0.64972,4.9639 -1.44381,8.66666 l -1.44383,6.7323 h -11.36738 c -11.12219,0 -11.35119,-0.0647 -10.6159,-3 z m 41.02404,-53.60264 c -1.86176,-11.40188 -3.73694,-20.73069 -4.16705,-20.73069 -0.43012,0 -2.15605,8.08832 -3.83543,17.97402 -1.67936,9.88572 -3.36148,19.15224 -3.73806,20.59228 -0.60874,2.32783 0.1068,2.66346 6.45137,3.02596 3.92483,0.22426 7.48213,0.28655 7.90513,0.13843 0.42299,-0.14811 -0.7542,-9.59811 -2.61596,-21 z m 53.18021,-0.064 V 61.95037 h 10.70686 10.70685 l 7.76444,16.33333 7.76445,16.33333 7.7502,-16.38368 7.7502,-16.38368 10.77851,0.38368 10.77849,0.38368 0.3478,56.33334 0.34782,56.33333 h -11.32639 -11.32637 l -0.35476,-36.33333 -0.35476,-36.33334 -7.08235,13.80655 c -3.89529,7.59359 -7.32736,13.56153 -7.6268,13.26208 -0.29945,-0.29945 -3.5242,-6.5124 -7.16611,-13.80655 l -6.62165,-13.26208 -0.0849,36.33334 -0.0849,36.33333 h -11.33333 -11.33334 z m 100.31887,0.33334 0.3478,-56.33334 h 29.33333 29.33333 v 9.33334 9.33333 l -18.33333,0.37096 -18.33333,0.37096 v 13.24179 13.24178 l 11,0.38726 11,0.38725 0.39174,9.66667 0.39175,9.66666 h -11.43839 -11.4384 l 0.37999,13.66667 0.37997,13.66667 18.33334,0.37096 18.33333,0.37096 v 9.2957 9.29571 h -30.01447 -30.01447 z m 81.33333,0 0.3478,-56.33334 11.52435,-0.38317 11.52436,-0.38316 2.01606,5.71649 c 1.10884,3.14408 5.72998,16.51651 10.26919,29.71651 4.53921,13.2 8.77777,24.9 9.41903,26 0.68981,1.18328 1.18248,-10.95347 1.20646,-29.72059 l 0.0406,-31.72058 11,0.38725 11,0.38725 0.3478,56.33334 0.34781,56.33333 h -12.3637 -12.36364 l -10.65083,-31 -10.65082,-31 -0.35791,31 -0.35791,31 h -11.32322 -11.32324 z"
     id="path823"
     inkscape:connector-curvature="0"
     sodipodi:nodetypes="csscccssscsssssssscsssccccccsscscssssccccccccccccsssscccccsscscssccsccccssscsccsccssccsscccccccccccsssscsssccccccccccccscccsccscccccccscccccccccccccsccccccssccsscsccccccccsscccscccsccscscsssccscssccccsccccccccccccccccscscccccccccccccccccccccccccccccccccccsssccccccccccccccc" />
  <path
     inkscape:connector-curvature="0"
     style="fill:#fd0300;fill-opacity:1;stroke-width:1.33333325"
     d="m 372.09418,572.13436 c -0.38327,-0.99878 -0.51443,-5.34878 -0.29148,-9.66666 l 0.40536,-7.85071 13.59184,-0.37915 13.59184,-0.37916 0.79346,-6.2875 c 0.4364,-3.45814 1.05118,-7.91804 1.36618,-9.91091 l 0.5727,-3.6234 -14.95801,-0.3766 -14.95801,-0.37661 -0.39987,-7.66667 -0.39988,-7.66667 h 26.64939 26.64937 l -0.58396,4.33334 c -4.19672,31.14244 -4.19531,31.66666 0.0849,31.66666 3.25926,0 3.33334,0.22223 3.33334,10 v 10 h -27.37518 c -21.87047,0 -27.5153,-0.36516 -28.07203,-1.81596 z"
     id="path936" />
  <path
     inkscape:connector-curvature="0"
     style="fill:#fd0300;fill-opacity:1;stroke-width:1.33333325"
     d="m 435.54139,559.95032 v -14 h 27.33333 27.33334 v 14 14 h -27.33334 -27.33333 z"
     id="path934" />
  <path
     inkscape:connector-curvature="0"
     style="fill:#fd0300;fill-opacity:1;stroke-width:1.33333325"
     d="m 590.6213,564.95032 c 0.44,-4.95 1.2168,-12.79157 1.7263,-17.42572 l 0.9263,-8.42572 -5.1996,0.42572 c -4.5555,0.37299 -5.2519,0.87991 -5.6215,4.09239 -0.4188,3.63999 -0.4953,3.66667 -10.5167,3.66667 h -10.0948 l 0.928,-11.66667 c 1.5676,-19.7084 -1.699,-17.66667 28.2657,-17.66667 h 25.8712 l -0.714,5 c -0.8239,5.76914 -5.9842,49.08666 -5.9842,50.23383 0,0.42139 -4.587,0.76617 -10.1933,0.76617 h -10.1934 z"
     id="path932" />
  <path
     inkscape:connector-curvature="0"
     style="fill:#fd0300;fill-opacity:1;stroke-width:1.33333325"
     d="m 624.8747,545.95032 v -28 h 9.3333 c 9.0667,0 9.3334,0.0952 9.3334,3.33334 v 3.33333 h 18 18 v 10 10 h -18 -18 v 4.66667 4.66666 h 18 18 v 10 10 H 652.208 624.8747 Z"
     id="path930" />
  <path
     inkscape:connector-curvature="0"
     style="fill:#fd0300;fill-opacity:1;stroke-width:1.33333325"
     d="m 750.208,545.99702 v -28.04664 h 14 14 v 8.50896 8.50897 l 11.6667,0.90899 c 17.2031,1.34037 16.3333,0.72193 16.3333,11.61347 v 9.36068 l -5,-0.74255 c -2.75,-0.4084 -9.0223,-1.12808 -13.9385,-1.59928 l -8.9386,-0.85675 -0.3948,9.81543 -0.3947,9.81539 -13.6667,0.37997 -13.6667,0.37999 v -28.04666 z"
     id="path928" />
  <path
     inkscape:connector-curvature="0"
     style="fill:#fd0300;fill-opacity:1;stroke-width:1.33333325"
     d="m 498.20806,545.97742 v -9.36039 h 28.10614 28.1062 l -0.4395,9 -0.4395,9 -27.6667,0.36039 -27.66664,0.36039 z"
     id="path926" />
  <path
     inkscape:connector-curvature="0"
     style="fill:#fd0300;fill-opacity:1;stroke-width:1.33333325"
     d="m 687.5414,545.95032 v -9.33333 h 28 28 v 7.22428 c 0,12.22027 1.9585,11.44239 -28.8093,11.44239 h -27.1907 z"
     id="path924" />
  <path
     inkscape:connector-curvature="0"
     style="fill:#fd0300;fill-opacity:1;stroke-width:1.33333325"
     d="m 436.87472,527.28366 v -9.33334 h 26 26 v 9.33334 9.33333 h -26 -26 z"
     id="path922" />
  <path
     inkscape:connector-curvature="0"
     style="fill:#fd0300;fill-opacity:1;stroke-width:1.33333325"
     d="m 878.208,222.78976 c 0,-0.53015 20.5571,-18.13057 23.8909,-20.45473 0.3067,-0.21379 -0.1045,-1.73782 -0.9138,-3.38671 -0.8093,-1.64889 -2.6553,-5.80021 -4.1023,-9.22515 l -2.6309,-6.22716 12.0806,-9.77284 c 6.6443,-5.37506 15.9805,-12.93175 20.74706,-16.79266 4.7666,-3.86091 9.0108,-6.67564 9.4315,-6.25496 0.4206,0.42068 3.5719,7.4796 7.0027,15.68649 4.3902,10.50177 5.7822,15.21305 4.6994,15.90549 -0.8462,0.54112 -5.4385,2.49839 -10.2051,4.34947 -13.18016,5.1184 -12.7119,4.10107 -7.5372,16.37072 l 4.5626,10.81835 -3.5127,0.72054 c -1.932,0.3963 -13.11266,2.24174 -24.84606,4.10098 -11.7333,1.85925 -22.9833,3.71514 -25,4.1242 -2.0167,0.40906 -3.6667,0.42616 -3.6667,0.038 z"
     id="path900" />
</svg>
